<svg xmlns="http://www.w3.org/2000/svg" xml:space="preserve" id="tree" x="0px" y="0px" version="1.1" viewBox="0 0 163.9 451.9">
  <style>
    .st0{fill:#f9f7f7;stroke:#f7e7e7;stroke-width:2.0618}.st1{fill:#9f0d1e}.st2{fill:#80151b}.st3{fill:url(#SVGID_1_)}
  </style>
  <line x1="82" x2="82" y2="229.6" class="st0"/>
  <path d="M82,209.1c11.5,0,47,74.9,47,81.4c0,6.5-94,7.3-94,0C35,283.2,70.5,209.1,82,209.1L82,209.1z" class="st1"/>
  <path d="M82,260.5c14.2,0,58.2,92.9,58.2,101c0,8-116.3,9-116.3,0C23.8,352.5,67.8,260.5,82,260.5L82,260.5z" class="st1"/>
  <path d="M82,300.8c20,0,82,130.8,82,142.1c0,11.3-163.9,12.7-163.9,0S61.9,300.8,82,300.8L82,300.8z" class="st2"/>
  <linearGradient id="SVGID_1_" x1="-12.8073" x2="125.8127" y1="252.0197" y2="520.3797" gradientTransform="matrix(1 0 0 1 0.1401 -42.8096)" gradientUnits="userSpaceOnUse">
    <stop offset="0.3583" stop-color="#eeeeef"/>
    <stop offset="0.9755" stop-color="#c0c1c3"/>
  </linearGradient>
  <path d="M129.2,360.1c6.7-1,10.9-2.3,10.9-3.8c0-4.8-15.6-39.6-31.2-67.1c11.7-0.9,20-2.3,20-4.2	c0-6.5-35.5-81.4-47-81.4c-11.5,0-47,74.1-47,81.4c0,2.1,8.2,3.6,19.7,4.4c-15.5,27.2-30.9,61.6-30.9,66.9c0,1.7,4,3,10.5,4	C16,394.7,0,431.3,0,437.7c0,12.7,163.9,11.3,163.9,0C164,431.9,147.8,394.9,129.2,360.1L129.2,360.1z" class="st3"/>
</svg>
